# AST/ASF file generated using VICON BodyLanguage
# -----------------------------------------------
:version 1.10
:name VICON
:units
  mass 1.0
  length 0.45
  angle deg
:documentation
   .ast/.asf automatically generated from VICON data using
   VICON BodyBuilder and BodyLanguage model FoxedUp or BRILLIANT.MOD
:root
   order TX TY TZ RX RY RZ
   axis XYZ
   position 0 0 0  
   orientation 0 0 0 
:bonedata
  begin
     id 1 
     name lhipjoint
     direction 0.578396 -0.714046 0.394458 
     length 2.21935 
     axis 0 0 0  XYZ
  end
  begin
     id 2 
     name lfemur
     direction 0.34202 -0.939693 0  
     length 6.39105  
     axis 0 0 20  XYZ
    dof rx ry rz
    limits (-160.0 20.0)
           (-70.0 70.0)
           (-60.0 70.0)
  end
  begin
     id 3 
     name ltibia
     direction 0.34202 -0.939693 0   
     length 6.99037   
     axis 0 0 20   XYZ
    dof rx
    limits (-10.0 170.0)
  end
  begin
     id 4 
     name lfoot
     direction 0.0582372 -0.160005 0.985397   
     length 2.06111   
     axis -90 7.62852e-016 20   XYZ
    dof rx rz
    limits (-45.0 90.0)
           (-70.0 20.0)
  end
  begin
     id 5 
     name ltoes
     direction 1.53556e-011 -4.21875e-011 1   
     length 1.04074   
     axis -90 7.62852e-016 20   XYZ
    dof rx
    limits (-90.0 20.0)
  end
  begin
     id 6 
     name rhipjoint
     direction -0.558179 -0.726269 0.40121   
     length 2.182  
     axis 0 0 0  XYZ 
  end
  begin
     id 7 
     name rfemur
     direction -0.34202 -0.939693 0   
     length 6.51172   
     axis 0 0 -20   XYZ
    dof rx ry rz
    limits (-160.0 20.0)
           (-70.0 70.0)
           (-70.0 60.0)
  end
  begin
     id 8 
     name rtibia
     direction -0.34202 -0.939693 0   
     length 7.02607   
     axis 0 0 -20   XYZ
    dof rx
    limits (-10.0 170.0)
 end
 begin
     id 9 
     name rfoot
     direction -0.0788856 -0.216737 0.973038   
     length 1.96734  
     axis -90 -7.62852e-016 -20   XYZ
    dof rx rz
    limits (-45.0 90.0)
           (-20.0 70.0)
  end
  begin
     id 10 
     name rtoes
     direction -1.53567e-011 -4.21783e-011 1   
     length 0.990825   
     axis -90 -7.62852e-016 -20   XYZ
    dof rx
    limits (-90.0 20.0)
  end
  begin
     id 11 
     name lowerback
     direction 0.00668177 0.999323 -0.0361741   
     length 1.7655   
     axis 0 0 0   XYZ
    dof rx ry rz
    limits (-20.0 45.0)
           (-30.0 30.0)
           (-30.0 30.0)
  end
  begin
     id 12 
     name upperback
     direction -0.00222086 0.99851 0.0545167   
     length 1.74912   
     axis 0 0 0   XYZ
    dof rx ry rz
    limits (-20.0 45.0)
           (-30.0 30.0)
           (-30.0 30.0)
  end
  begin
     id 13 
     name thorax
     direction -0.00733971 0.997496 0.0703443   
     length 1.75715   
     axis 0 0 0   XYZ
    dof rx ry rz
    limits (-20.0 45.0)
           (-30.0 30.0)
           (-30.0 30.0)
  end
  begin
     id 14 
     name lowerneck
     direction 0.0279797 0.994795 0.0979765   
     length 1.46939   
     axis 0 0 0   XYZ
    dof rx ry rz
    limits (-20.0 45.0)
           (-30.0 30.0)
           (-30.0 30.0)
  end
  begin
     id 15 
     name upperneck
     direction 0.00339187 0.976776 -0.214238   
     length 1.48018   
     axis 0 0 0   XYZ
    dof rx ry rz
    limits (-20.0 45.0)
           (-30.0 30.0)
           (-30.0 30.0)
  end
  begin
     id 16
     name head
     direction -0.00263506 0.996603 -0.0823096  
     length 1.4976  
     axis 0 0 0   XYZ
    dof rx ry rz
    limits (-20.0 45.0)
           (-30.0 30.0)
           (-30.0 30.0)
  end
  begin
     id 17 
     name lclavicle
     direction 0.894044 0.44508 -0.0508781  
     length 3.03024  
     axis 0 0 0   XYZ
    dof ry rz
    limits (-20.0 10.0)
           (0.0 20.0)
  end
  begin
     id 18 
     name lhumerus
     direction 1 -4.48961e-011 -2.39475e-018   
     length 4.4661   
     axis 180 -30 -90   XYZ
    dof rx ry rz
    limits (-60.0 90.0)
           (-90.0 90.0)
           (-90.0 90.0)
  end
  begin
     id 19
     name lradius
     direction 1 -4.48961e-011 9.29328e-028   
     length 3.41414   
     axis 180 -30 -90   XYZ
    dof rx
    limits (-10.0 170.0)
  end
  begin
     id 20
     name lwrist
     direction 1 -4.48985e-011 1.53461e-026   
     length 1.70707   
     axis -1.09697e-014 90 90   XYZ
    dof ry
    limits (-180.0 0.0)
 end
  begin
     id 21 
     name lhand
     direction 1 -4.48966e-011 3.06923e-026   
     length 0.328298   
     axis -1.95843e-014 90 90   XYZ
    dof rx rz
    limits (-90.0 90.0)
           (-45.0 45.0)
  end
  begin
     id 22 
     name lfingers
     direction 1 -4.48893e-011 6.13845e-026   
     length 0.264682   
     axis -3.91686e-014 90 90   XYZ
    dof rx
    limits (0.0 90.0)
  end
  begin
     id 23
     name lthumb
     direction 0.707107 -6.34876e-011 0.707107   
     length 0.380032   
     axis -90 45 2.85299e-015   XYZ
    dof rx rz
    limits (-45.0 45.0)
           (-45.0 45.0)
  end
  begin
     id 24 
     name rclavicle
     direction -0.936955 0.347862 -0.0332887   
     length 3.26927  
     axis 0 0 0   XYZ 
    dof ry rz
    limits (-10.0 20.0)
           (-20.0 0.0)
  end
  begin
     id 25 
     name rhumerus
     direction -1 -4.4896e-011 1.78637e-018  
     length 4.40431   
     axis 180 30 90   XYZ
    dof rx ry rz
    limits (-90.0 60.0)
           (-90.0 90.0)
           (-90.0 90.0)
  end
  begin
     id 26 
     name rradius
     direction -1 -4.48955e-011 9.34036e-027   
     length 3.04688   
     axis 180 30 90   XYZ
    dof rx
    limits (-10.0 170.0)
  end
  begin
     id 27 
     name rwrist
     direction -1 -4.49011e-011 1.53461e-026   
     length 1.52344   
     axis -1.09697e-014 -90 -90   XYZ
    dof ry
    limits (-180.0 0.0)
  end
  begin
     id 28
     name rhand
     direction -1 -4.48834e-011 3.06923e-026   
     length 0.500489   
     axis -1.95843e-014 -90 -90   XYZ
    dof rx rz
    limits (-90.0 90.0)
           (-45.0 45.0)
  end
  begin
     id 29
     name rfingers
     direction -1 -4.48967e-011 6.13845e-026   
     length 0.403507   
     axis -3.91686e-014 -90 -90   XYZ
    dof rx
    limits (0.0 90.0)
  end
  begin
     id 30
     name rthumb
     direction -0.707107 -6.34826e-011 0.707107   
     length 0.579358   
     axis -90 -45 -2.85299e-015   XYZ
    dof rx rz
    limits (-45.0 45.0)
           (-45.0 45.0)
  end
:hierarchy
  begin
    root lhipjoint rhipjoint lowerback
    lhipjoint lfemur
    lfemur ltibia
    ltibia lfoot
    lfoot ltoes
    rhipjoint rfemur
    rfemur rtibia
    rtibia rfoot
    rfoot rtoes
    lowerback upperback
    upperback thorax
    thorax lowerneck lclavicle rclavicle
    lowerneck upperneck
    upperneck head
    lclavicle lhumerus
    lhumerus lradius
    lradius lwrist
    lwrist lhand lthumb
    lhand lfingers
    rclavicle rhumerus
    rhumerus rradius
    rradius rwrist
    rwrist rhand rthumb
    rhand rfingers
  end

#!OML:ASF H:\IndianDance\Patient Classification 1\Patient 1\Session 1\dancer.ASF
:FULLY-SPECIFIED
:DEGREES
250
root 10.9916 13.217 1.61418 103.991 -85.7916 -103.36
lowerback 6.7346 -1.39591 -1.14184
upperback -4.31343 -1.83392 2.84869
thorax -8.20584 -0.764083 3.91227
lowerneck -14.2743 -9.45731 -3.30502
upperneck 38.5531 -17.0857 2.67023
head 16.9417 -7.85495 -1.61964
rclavicle -2.66868e-014 1.03368e-014
rhumerus 15.2126 23.1513 -0.732184
rradius 35.4172
rwrist -16.9862
rhand -1.53676 9.44057
rfingers 7.12502
rthumb 24.1176 -19.0635
lclavicle -2.66868e-014 1.03368e-014
lhumerus -13.0484 -24.6464 10.9733
lradius 36.4379
lwrist 2.73342
lhand -4.57305 9.06966
lfingers 7.12502
lthumb 21.2036 37.93
rfemur -39.8498 -39.2401 20.8002
rtibia 77.0621
rfoot -30.6485 -9.92512
rtoes 10.2137
lfemur -36.1283 43.7432 -12.0352
ltibia 77.3982
lfoot -32.2494 6.95121
ltoes 8.63554
251
root 10.9995 13.2237 1.61571 103.468 -85.7836 -102.806
lowerback 6.74253 -1.26343 -0.902806
upperback -4.35056 -1.63848 2.73031
thorax -8.27398 -0.683842 3.62667
lowerneck -14.6292 -9.04123 -2.98726
upperneck 38.6474 -16.2867 2.24501
head 16.9452 -7.51552 -1.7153
rclavicle -2.14315e-014 -7.35503e-015
rhumerus 14.4438 23.4768 -0.478193
rradius 35.6587
rwrist -17.0657
rhand -1.56097 9.47263
rfingers 7.12502
rthumb 24.0944 -19.0345
lclavicle -2.14315e-014 -7.35503e-015
lhumerus -12.6095 -24.8028 10.7339
lradius 36.5459
lwrist 2.91933
lhand -4.43447 9.15625
lfingers 7.12502
lthumb 21.3367 38.0016
rfemur -39.8885 -39.2639 20.8671
rtibia 76.9686
rfoot -30.5936 -9.92329
rtoes 10.2417
lfemur -36.2015 43.6966 -12.104
ltibia 77.3213
lfoot -32.2093 6.92739
ltoes 8.72948
252
root 11.0069 13.23 1.61711 102.842 -85.773 -102.146
lowerback 6.74721 -1.13462 -0.660848
upperback -4.38612 -1.44755 2.61476
thorax -8.33589 -0.606434 3.34266
lowerneck -14.9645 -8.63497 -2.69483
upperneck 38.7184 -15.495 1.81725
head 16.9435 -7.18507 -1.80885
rclavicle -2.32951e-014 2.00773e-014
rhumerus 13.6575 23.8036 -0.254042
rradius 35.9219
rwrist -17.1295
rhand -1.59244 9.52242
rfingers 7.12502
rthumb 24.0642 -18.9888
lclavicle -2.32951e-014 2.00773e-014
lhumerus -12.1857 -24.9757 10.4861
lradius 36.6544
lwrist 3.13107
lhand -4.3025 9.29858
lfingers 7.12502
lthumb 21.4635 38.1295
rfemur -39.9302 -39.3023 20.9376
rtibia 76.8809
rfoot -30.5398 -9.91669
rtoes 10.2517
lfemur -36.2818 43.6557 -12.1686
ltibia 77.2521
lfoot -32.1686 6.89734
ltoes 8.80166
253
root 11.0139 13.2357 1.61833 102.147 -85.7637 -101.418
lowerback 6.75475 -1.01098 -0.424715
upperback -4.42025 -1.26393 2.50313
thorax -8.39509 -0.532566 3.06699
lowerneck -15.2802 -8.23976 -2.42854
upperneck 38.766 -14.7132 1.38825
head 16.9366 -6.86461 -1.89997
rclavicle -1.67849e-014 1.2424e-014
rhumerus 12.8638 24.1313 -0.060036
rradius 36.2075
rwrist -17.1833
rhand -1.63763 9.58108
rfingers 7.12502
rthumb 24.0209 -18.9358
lclavicle -1.67849e-014 1.2424e-014
lhumerus -11.79 -25.1793 10.2303
lradius 36.7693
lwrist 3.36051
lhand -4.15506 9.46197
lfingers 7.12502
lthumb 21.6051 38.2767
rfemur -39.972 -39.3523 21.0046
rtibia 76.8006
rfoot -30.4896 -9.90337
rtoes 10.2535
lfemur -36.3642 43.6222 -12.2307
ltibia 77.1902
lfoot -32.1275 6.86372
ltoes 8.84604
254
root 11.0206 13.2409 1.61931 101.405 -85.7574 -100.644
lowerback 6.76675 -0.894129 -0.198431
upperback -4.45075 -1.09006 2.39617
thorax -8.45013 -0.463136 2.80305
lowerneck -15.577 -7.85567 -2.18987
upperneck 38.7889 -13.9417 0.961025
head 16.9236 -6.55411 -1.98698
rclavicle -3.45388e-015 -2.15681e-014
rhumerus 12.0736 24.4614 0.10984
rradius 36.5141
rwrist -17.237
rhand -1.68997 9.65506
rfingers 7.12502
rthumb 23.9707 -18.8684
lclavicle -3.45388e-015 -2.15681e-014
lhumerus -11.4278 -25.4297 9.96345
lradius 36.8929
lwrist 3.59945
lhand -3.99141 9.63893
lfingers 7.12502
lthumb 21.7622 38.4355
rfemur -40.0133 -39.4115 21.0648
rtibia 76.7294
rfoot -30.4433 -9.88254
rtoes 10.2621
lfemur -36.4463 43.5966 -12.2912
ltibia 77.1359
lfoot -32.0882 6.82045
ltoes 8.88321
255
root 11.0269 13.2454 1.61998 100.628 -85.753 -99.8382
lowerback 6.78613 -0.785184 0.0135908
upperback -4.47798 -0.927645 2.29725
thorax -8.50325 -0.398524 2.55722
lowerneck -15.843 -7.48425 -1.97998
upperneck 38.7768 -13.1831 0.53977
head 16.8963 -6.2547 -2.06679
rclavicle -1.0461e-014 1.07344e-014
rhumerus 11.2987 24.8017 0.264976
rradius 36.8405
rwrist -17.2987
rhand -1.74806 9.73559
rfingers 7.12502
rthumb 23.915 -18.7952
lclavicle -1.0461e-014 1.07344e-014
lhumerus -11.1065 -25.7365 9.68593
lradius 37.029
lwrist 3.83866
lhand -3.7854 9.79783
lfingers 7.12502
lthumb 21.96 38.5713
rfemur -40.0536 -39.4763 21.1199
rtibia 76.667
rfoot -30.4016 -9.85825
rtoes 10.268
lfemur -36.5268 43.5797 -12.3481
ltibia 77.0887
lfoot -32.0508 6.77024
ltoes 8.9086
256
root 11.033 13.2492 1.62029 99.8717 -85.7549 -99.0562
lowerback 6.81168 -0.683429 0.203714
upperback -4.50179 -0.776525 2.20539
thorax -8.55384 -0.338181 2.33268
lowerneck -16.0899 -7.12886 -1.7972
upperneck 38.7406 -12.4437 0.120645
head 16.8623 -5.96852 -2.14374
rclavicle 5.98218e-015 -2.48481e-015
rhumerus 10.5427 25.1725 0.41769
rradius 37.1889
rwrist -17.3924
rhand -1.81563 9.81886
rfingers 7.12502
rthumb 23.8502 -18.7204
lclavicle 5.98218e-015 -2.48481e-015
lhumerus -10.8219 -26.1018 9.39542
lradius 37.1776
lwrist 4.06727
lhand -3.52246 9.9369
lfingers 7.12502
lthumb 22.2125 38.6806
rfemur -40.093 -39.5426 21.1638
rtibia 76.6142
rfoot -30.3649 -9.82864
rtoes 10.2814
lfemur -36.603 43.5736 -12.4065
ltibia 77.0471
lfoot -32.016 6.71258
ltoes 8.92764
257
root 11.0389 13.2526 1.62009 99.1285 -85.7602 -98.2905
lowerback 6.84377 -0.588316 0.3701
upperback -4.52231 -0.636031 2.12218
thorax -8.60265 -0.281561 2.13204
lowerneck -16.3032 -6.79775 -1.64815
upperneck 38.6686 -11.7377 -0.284453
head 16.8129 -5.7012 -2.21257
rclavicle 2.68359e-015 1.66482e-014
rhumerus 9.8067 25.5753 0.567473
rradius 37.5529
rwrist -17.5161
rhand -1.89046 9.90433
rfingers 7.12502
rthumb 23.7785 -18.6443
lclavicle 2.68359e-015 1.66482e-014
lhumerus -10.5716 -26.5232 9.09141
lradius 37.3369
lwrist 4.26402
lhand -3.23303 10.0218
lfingers 7.12502
lthumb 22.4903 38.7321
rfemur -40.1304 -39.6056 21.2013
rtibia 76.5694
rfoot -30.3349 -9.79655
rtoes 10.3107
lfemur -36.675 43.5791 -12.4616
ltibia 77.0099
lfoot -31.9817 6.6482
ltoes 8.93186
258
root 11.0446 13.2555 1.61932 98.4049 -85.7705 -97.5474
lowerback 6.8795 -0.498388 0.509242
upperback -4.53945 -0.504761 2.04545
thorax -8.64823 -0.227786 1.95472
lowerneck -16.4883 -6.49847 -1.52642
upperneck 38.5665 -11.0783 -0.680284
head 16.7506 -5.45741 -2.27927
rclavicle 5.19014e-015 -8.54774e-015
rhumerus 9.08753 26.0096 0.706729
rradius 37.923
rwrist -17.6696
rhand -1.98104 9.98431
rfingers 7.12502
rthumb 23.6916 -18.5756
lclavicle 5.19014e-015 -8.54774e-015
lhumerus -10.3507 -26.9976 8.76967
lradius 37.506
lwrist 4.41195
lhand -2.95782 9.99691
lfingers 7.12502
lthumb 22.7544 38.675
rfemur -40.1656 -39.6637 21.2311
rtibia 76.5318
rfoot -30.3104 -9.76756
rtoes 10.3402
lfemur -36.7407 43.5967 -12.5145
ltibia 76.9749
lfoot -31.9479 6.57513
ltoes 8.92903
259
root 11.05 13.2581 1.61791 97.6892 -85.7859 -96.8156
lowerback 6.91593 -0.412423 0.618833
upperback -4.55317 -0.381521 1.97333
thorax -8.68914 -0.176148 1.79979
lowerneck -16.6373 -6.23731 -1.42754
upperneck 38.4297 -10.4779 -1.06387
head 16.6699 -5.24124 -2.34463
rclavicle 5.87347e-015 -2.045e-014
rhumerus 8.37979 26.4703 0.824105
rradius 38.2894
rwrist -17.8462
rhand -2.08117 10.0624
rfingers 7.12502
rthumb 23.5955 -18.5099
lclavicle 5.87347e-015 -2.045e-014
lhumerus -10.1493 -27.5092 8.42759
lradius 37.6897
lwrist 4.51772
lhand -2.71512 9.88835
lfingers 7.12502
lthumb 22.9873 38.5377
rfemur -40.1972 -39.7152 21.2536
rtibia 76.5001
rfoot -30.2909 -9.74519
rtoes 10.3674
lfemur -36.7998 43.6249 -12.565
ltibia 76.9405
lfoot -31.9129 6.49732
ltoes 8.91383
260
root 11.0551 13.2604 1.61587 96.9889 -85.8039 -96.1035
lowerback 6.9519 -0.330347 0.700474
upperback -4.56371 -0.266176 1.90476
thorax -8.72524 -0.126665 1.66525
lowerneck -16.75 -6.01889 -1.34876
upperneck 38.2622 -9.94576 -1.43481
head 16.5719 -5.05581 -2.41072
rclavicle -1.14379e-015 2.52829e-015
rhumerus 7.67951 26.9452 0.90315
rradius 38.6439
rwrist -18.0282
rhand -2.19983 10.1409
rfingers 7.12502
rthumb 23.4817 -18.4461
lclavicle -1.14379e-015 2.52829e-015
lhumerus -9.96767 -28.0418 8.06497
lradius 37.8912
lwrist 4.58613
lhand -2.53566 9.72573
lfingers 7.12502
lthumb 23.1595 38.3535
rfemur -40.2226 -39.758 21.2704
rtibia 76.4728
rfoot -30.2769 -9.73031
rtoes 10.3983
lfemur -36.8495 43.6636 -12.6093
ltibia 76.9056
lfoot -31.8764 6.41799
ltoes 8.87513
261
root 11.0599 13.2625 1.61321 96.2573 -85.8241 -95.3629
lowerback 6.98547 -0.253949 0.755177
upperback -4.5719 -0.161173 1.83885
thorax -8.75649 -0.0805853 1.54992
lowerneck -16.8362 -5.84736 -1.28168
upperneck 38.0731 -9.48855 -1.80225
head 16.4613 -4.90352 -2.48491
rclavicle 5.62498e-015 -3.2054e-015
rhumerus 6.98829 27.4196 0.930681
rradius 38.9764
rwrist -18.1981
rhand -2.33482 10.2204
rfingers 7.12502
rthumb 23.3522 -18.3831
lclavicle 5.62498e-015 -3.2054e-015
lhumerus -9.80433 -28.5731 7.68445
lradius 38.1094
lwrist 4.63249
lhand -2.43493 9.50154
lfingers 7.12502
lthumb 23.2562 38.1172
rfemur -40.2429 -39.7939 21.2833
rtibia 76.4496
rfoot -30.2687 -9.72302
rtoes 10.438
lfemur -36.893 43.7077 -12.6482
ltibia 76.8708
lfoot -31.839 6.33168
ltoes 8.8465
